<?xml version="1.0" encoding="UTF-8"?> <svg xmlns="http://www.w3.org/2000/svg" xmlns:xlink="http://www.w3.org/1999/xlink" viewBox="0 0 512 512" width="512" height="512" preserveAspectRatio="xMidYMid meet" style="width: 100%; height: 100%; transform: translate3d(0px, 0px, 0px); content-visibility: visible;"><defs><clipPath id="__lottie_element_2"><rect width="512" height="512" x="0" y="0"></rect></clipPath><clipPath id="__lottie_element_4"><path d="M0,0 L512,0 L512,512 L0,512z"></path></clipPath><clipPath id="__lottie_element_8"><path d="M0,0 L512,0 L512,512 L0,512z"></path></clipPath><clipPath id="__lottie_element_12"><path d="M0,0 L512,0 L512,512 L0,512z"></path></clipPath><radialGradient id="__lottie_element_50" spreadMethod="pad" gradientUnits="userSpaceOnUse" cx="0" cy="0" r="100" fx="0" fy="0"><stop offset="15%" stop-color="rgb(255,146,39)"></stop><stop offset="24%" stop-color="rgb(255,179,39)"></stop><stop offset="54%" stop-color="rgb(255,213,39)"></stop></radialGradient><radialGradient id="__lottie_element_54" spreadMethod="pad" gradientUnits="userSpaceOnUse" cx="0" cy="0" r="100" fx="0" fy="0"><stop offset="15%" stop-color="rgb(255,146,39)"></stop><stop offset="24%" stop-color="rgb(255,179,39)"></stop><stop offset="54%" stop-color="rgb(255,213,39)"></stop></radialGradient><clipPath id="__lottie_element_90"><path d="M0,0 L512,0 L512,512 L0,512z"></path></clipPath><clipPath id="__lottie_element_103"><path d="M0,0 L512,0 L512,512 L0,512z"></path></clipPath><clipPath id="__lottie_element_107"><path d="M0,0 L512,0 L512,512 L0,512z"></path></clipPath><clipPath id="__lottie_element_111"><path d="M0,0 L512,0 L512,512 L0,512z"></path></clipPath><radialGradient id="__lottie_element_149" spreadMethod="pad" gradientUnits="userSpaceOnUse"><stop></stop><stop></stop><stop></stop></radialGradient><radialGradient id="__lottie_element_153" spreadMethod="pad" gradientUnits="userSpaceOnUse"><stop></stop><stop></stop><stop></stop></radialGradient><clipPath id="__lottie_element_204"><path d="M0,0 L512,0 L512,512 L0,512z"></path></clipPath></defs><g clip-path="url(#__lottie_element_2)"><g clip-path="url(#__lottie_element_4)" transform="matrix(1,0,0,1,0,0)" opacity="1" style="display: none;"><g clip-path="url(#__lottie_element_8)" transform="matrix(1,0,0,0.800000011920929,13,112.39999389648438)" opacity="1" style="display: none;"></g><g clip-path="url(#__lottie_element_90)" transform="matrix(1,0,0,0.800000011920929,13,112.39999389648438)" opacity="1" style="display: block;"><g transform="matrix(0.6888552308082581,0,0,0.6888552308082581,136.05450439453125,387.076416015625)" opacity="1" style="display: block;"><g opacity="1" transform="matrix(1,0,0,1,176.4949951171875,64.81999969482422)"><path stroke-linecap="round" stroke-linejoin="round" fill-opacity="0" stroke="rgb(3,180,255)" stroke-opacity="1" stroke-width="3.5151993154055425" d=" M151.4949951171875,0 C151.4949951171875,21.992000579833984 83.66899871826172,39.81999969482422 0.0010000000474974513,39.81999969482422 C-83.66699981689453,39.81999969482422 -151.49400329589844,21.992000579833984 -151.49400329589844,0 C-151.49400329589844,-21.992000579833984 -83.66699981689453,-39.81999969482422 0.0010000000474974513,-39.81999969482422 C83.66899871826172,-39.81999969482422 151.4949951171875,-21.992000579833984 151.4949951171875,0z"></path></g></g></g><g clip-path="url(#__lottie_element_12)" transform="matrix(1,0,0,0.800000011920929,13,112.39999389648438)" opacity="1" style="display: block;"><g transform="matrix(1.5022599697113037,0,0,1.5022599697113037,-7.507354736328125,334.35150146484375)" opacity="1" style="display: block;"><g opacity="1" transform="matrix(1,0,0,1,176.4949951171875,64.81999969482422)"><path stroke-linecap="round" stroke-linejoin="round" fill-opacity="0" stroke="rgb(3,180,255)" stroke-opacity="1" stroke-width="0" d=" M151.4949951171875,0 C151.4949951171875,21.992000579833984 83.66899871826172,39.81999969482422 0.0010000000474974513,39.81999969482422 C-83.66699981689453,39.81999969482422 -151.49400329589844,21.992000579833984 -151.49400329589844,0 C-151.49400329589844,-21.992000579833984 -83.66699981689453,-39.81999969482422 0.0010000000474974513,-39.81999969482422 C83.66899871826172,-39.81999969482422 151.4949951171875,-21.992000579833984 151.4949951171875,0z"></path></g></g></g><g transform="matrix(1.049178957939148,0.04151579365134239,-0.04151579365134239,1.049178957939148,95.42544555664062,185.37294006347656)" opacity="1" style="display: block;"><path fill="rgb(255,213,39)" fill-opacity="1" d=" M87.25,255.02 C50.72,246.05 37.38,204.69 37.38,173.7 C37.38,143.19 42.43,113.55 75.41,86.2 C105.15,61.53 163.74,32.48 208.14,31.9 C278.33,30.98 321.45,63.24 330.68,74.55 C347.92,95.7 364.79,127.46 366.2,173.4 C367.24,207.08 349.11,245.79 298.59,254.1 C226.17,266.01 150.01,270.44 87.25,255.02z"></path><g opacity="1" transform="matrix(1,0,0,1,205.83900451660156,156.75)"><path stroke-linecap="round" stroke-linejoin="miter" fill-opacity="0" stroke-miterlimit="10" stroke="rgb(249,143,22)" stroke-opacity="1" stroke-width="20" d=" M-118.58899688720703,98.27200317382812 C-155.11500549316406,89.30000305175781 -168.45799255371094,47.94300079345703 -168.45799255371094,16.94700050354004 C-168.45799255371094,-13.5649995803833 -163.40899658203125,-43.196998596191406 -130.43099975585938,-70.55000305175781 C-100.68699645996094,-95.22000122070312 -42.097999572753906,-124.2699966430664 2.305000066757202,-124.8499984741211 C72.48799896240234,-125.76699829101562 115.61199951171875,-93.51000213623047 124.83799743652344,-82.19599914550781 C142.08200073242188,-61.04999923706055 158.9550018310547,-29.285999298095703 160.36300659179688,16.645000457763672 C161.39599609375,50.334999084472656 143.27200317382812,89.04399871826172 92.75499725341797,97.35099792480469 C20.326000213623047,109.26100158691406 -55.83100128173828,113.68699645996094 -118.58899688720703,98.27200317382812z"></path></g></g><g transform="matrix(1.049178957939148,0.04151579365134239,-0.04151579365134239,1.049178957939148,-183.03662109375,190.48751831054688)" opacity="1" style="display: block;"><path fill="rgb(255,213,39)" fill-opacity="1" d=" M321.35,147.86 C303.23,124.82 292.17,131.72 287.86,139.23 C271.94,166.94 300.63,228.3 351.7,243.95"></path><g opacity="1" transform="matrix(1,0,0,1,205.83900451660156,156.75)"><path stroke-linecap="round" stroke-linejoin="miter" fill-opacity="0" stroke-miterlimit="10" stroke="rgb(249,143,22)" stroke-opacity="1" stroke-width="10" d=" M115.50900268554688,-8.892000198364258 C97.38899993896484,-31.929000854492188 86.33200073242188,-25.025999069213867 82.02100372314453,-17.52199935913086 C66.10099792480469,10.1899995803833 94.78600311279297,71.552001953125 145.86199951171875,87.2040023803711"></path></g></g><g transform="matrix(1.049178957939148,0.04151579365134239,-0.04151579365134239,1.049178957939148,95.42544555664062,185.37294006347656)" opacity="1" style="display: block;"><path fill="rgb(255,213,39)" fill-opacity="1" d=" M87.25,255.02 C50.72,246.05 37.38,204.69 37.38,173.7 C37.38,143.19 42.43,113.55 75.41,86.2 C105.15,61.53 163.74,32.48 208.14,31.9 C278.33,30.98 321.45,63.24 330.68,74.55 C347.92,95.7 364.79,127.46 366.2,173.4 C367.24,207.08 349.11,245.79 298.59,254.1 C226.17,266.01 150.01,270.44 87.25,255.02z"></path><g opacity="1" transform="matrix(1,0,0,1,205.83900451660156,156.75)"></g></g><g transform="matrix(1.0472136735916138,-0.07644317299127579,0.07644317299127579,1.0472136735916138,98.77519226074219,286.3919677734375)" opacity="1" style="display: block;"><g opacity="1" transform="matrix(1,0,0,1,38.819000244140625,73.84600067138672)"><path stroke-linecap="round" stroke-linejoin="round" fill-opacity="0" stroke="rgb(255,255,255)" stroke-opacity="1" stroke-width="10" d=" M-4.084000110626221,21.915000915527344 C-1.9259999990463257,43.39500045776367 5.7230000495910645,65.427001953125 22.61199951171875,76.96700286865234"></path></g></g><g transform="matrix(1.049178957939148,0.04151579365134239,-0.04151579365134239,1.049178957939148,417.48284912109375,338.0577697753906)" opacity="1" style="display: block;"><g opacity="1" transform="matrix(1,0,0,1,35.6879997253418,48.13999938964844)"><path stroke-linecap="round" stroke-linejoin="round" fill-opacity="0" stroke="rgb(251,237,32)" stroke-opacity="1" stroke-width="10" d=" M-16.716999053955078,44.630001068115234 C0.41999998688697815,31.27899932861328 17.964000701904297,6.236000061035156 0.3959999978542328,-55.858001708984375"></path></g></g><g transform="matrix(0.9999990463256836,0,0,0.9999990463256836,308.08245849609375,256.00048828125)" opacity="1" style="display: block;"><g opacity="1" transform="matrix(1,0,0,1,150.06199645996094,56.077999114990234)"><path fill="rgb(255,213,39)" fill-opacity="1" d=" M0,-11.57800006866455 C6.380791664123535,-11.57800006866455 11.56149959564209,-6.389898300170898 11.56149959564209,0 C11.56149959564209,6.389898300170898 6.380791664123535,11.57800006866455 0,11.57800006866455 C-6.380791664123535,11.57800006866455 -11.56149959564209,6.389898300170898 -11.56149959564209,0 C-11.56149959564209,-6.389898300170898 -6.380791664123535,-11.57800006866455 0,-11.57800006866455z"></path></g></g><g transform="matrix(0.9266851544380188,-0.37583574652671814,-0.37583574652671814,-0.9266851544380188,438.78289794921875,465.544189453125)" opacity="1" style="display: block;"><path fill="rgb(255,213,39)" fill-opacity="1" d=" M66.92,189.21 C124.76,143.69 107.17,78.52 87.65,52.32 C79.26,41.06 66.64,36.15 58.16,44.12 C69.84,63.99 85.52,101.33 79.21,127.54"></path><g opacity="1" transform="matrix(1,0,0,1,74.38400268554688,100.1780014038086)"><path stroke-linecap="round" stroke-linejoin="miter" fill-opacity="0" stroke-miterlimit="10" stroke="rgb(249,143,22)" stroke-opacity="1" stroke-width="10" d=" M-7.460000038146973,89.0270004272461 C50.37699890136719,43.51100158691406 32.78499984741211,-21.655000686645508 13.26200008392334,-47.85599899291992 C4.872000217437744,-59.117000579833984 -7.744999885559082,-64.02899932861328 -16.22800064086914,-56.058998107910156 C-4.546999931335449,-36.189998626708984 11.13700008392334,1.152999997138977 4.828000068664551,27.358999252319336"></path></g></g><g transform="matrix(1.0491777658462524,0.041515737771987915,-0.041515737771987915,1.0491777658462524,402.85504150390625,248.55340576171875)" opacity="1" style="display: block;"><g opacity="1" transform="matrix(1,0,0,1,35.28499984741211,48.323001861572266)"><path stroke-linecap="round" stroke-linejoin="round" fill-opacity="0" stroke="rgb(251,237,32)" stroke-opacity="1" stroke-width="7" d=" M55.53900146484375,65.08899688720703 C52.01499938964844,35.30099868774414 47.12300109863281,15.451000213623047 20.280000686645508,-7.635000228881836"></path></g></g><g transform="matrix(1.058541178703308,0.30821141600608826,-0.30821141600608826,1.058541178703308,155.98155212402344,-75.97607421875)" opacity="1" style="display: block;"><g opacity="1" transform="matrix(1,0,0,1,196.52099609375,174.67799377441406)"><path fill="rgb(255,213,39)" fill-opacity="1" d=" M151.13800048828125,75.11000061035156 C164.97799682617188,50.76599884033203 170.031005859375,22.606000900268555 164.11500549316406,-7.175000190734863 C148.4239959716797,-86.15599822998047 61.35599899291992,-149.67799377441406 -26.993999481201172,-132.12600708007812 C-115.34500122070312,-114.5739974975586 -171.52099609375,-22.594999313354492 -155.8300018310547,56.38600158691406 C-149.42100524902344,88.6500015258789 -128.55799865722656,122.20700073242188 -102.23600006103516,141.76600646972656"></path><path stroke-linecap="round" stroke-linejoin="miter" fill-opacity="0" stroke-miterlimit="10" stroke="rgb(249,143,22)" stroke-opacity="1" stroke-width="9.5" d=" M151.13800048828125,75.11000061035156 C164.97799682617188,50.76599884033203 170.031005859375,22.606000900268555 164.11500549316406,-7.175000190734863 C148.4239959716797,-86.15599822998047 61.35599899291992,-149.67799377441406 -26.993999481201172,-132.12600708007812 C-115.34500122070312,-114.5739974975586 -171.52099609375,-22.594999313354492 -155.8300018310547,56.38600158691406 C-149.42100524902344,88.6500015258789 -128.55799865722656,122.20700073242188 -102.23600006103516,141.76600646972656"></path></g></g><g transform="matrix(0.982189953327179,0.1878877878189087,-0.1878877878189087,0.982189953327179,343.1476135253906,264.8875427246094)" opacity="0.001186215737173768" style="display: none;"><g opacity="1" transform="matrix(1,0,0,1,88.44499969482422,-36.10200119018555)"><path fill="url(#__lottie_element_50)" fill-opacity="1" d=" M0,-32.88650131225586 C18.150060653686523,-32.88650131225586 32.88650131225586,-18.150060653686523 32.88650131225586,0 C32.88650131225586,18.150060653686523 18.150060653686523,32.88650131225586 0,32.88650131225586 C-18.150060653686523,32.88650131225586 -32.88650131225586,18.150060653686523 -32.88650131225586,0 C-32.88650131225586,-18.150060653686523 -18.150060653686523,-32.88650131225586 0,-32.88650131225586z"></path></g></g><g transform="matrix(0.982189953327179,0.1878877878189087,-0.1878877878189087,0.982189953327179,128.9312744140625,241.2554931640625)" opacity="0.001186215737173768" style="display: none;"><g opacity="1" transform="matrix(1,0,0,1,88.44499969482422,-36.10200119018555)"><path fill="url(#__lottie_element_54)" fill-opacity="1" d=" M0,-32.88650131225586 C18.150060653686523,-32.88650131225586 32.88650131225586,-18.150060653686523 32.88650131225586,0 C32.88650131225586,18.150060653686523 18.150060653686523,32.88650131225586 0,32.88650131225586 C-18.150060653686523,32.88650131225586 -32.88650131225586,18.150060653686523 -32.88650131225586,0 C-32.88650131225586,-18.150060653686523 -18.150060653686523,-32.88650131225586 0,-32.88650131225586z"></path></g></g><g transform="matrix(0.4834977686405182,0.9908246397972107,-0.9908246397972107,0.4834977686405182,321.51239013671875,-17.54739761352539)" opacity="1" style="display: block;"><g opacity="1" transform="matrix(1,0,0,1,49.17599868774414,105.06700134277344)"><path stroke-linecap="round" stroke-linejoin="round" fill-opacity="0" stroke="rgb(255,255,255)" stroke-opacity="1" stroke-width="10" d=" M19.926000595092773,89.20099639892578 C27.200000762939453,97.16799926757812 35.882999420166016,104.59700012207031 46.17499923706055,111.25700378417969"></path></g></g><g transform="matrix(0.4834977686405182,0.9908246397972107,-0.9908246397972107,0.4834977686405182,321.51239013671875,-17.54739761352539)" opacity="1" style="display: block;"><g opacity="1" transform="matrix(1,0,0,1,49.17599868774414,105.06700134277344)"><path stroke-linecap="round" stroke-linejoin="round" fill-opacity="0" stroke="rgb(255,255,255)" stroke-opacity="1" stroke-width="10" d=" M7.406000137329102,-80.06800079345703 C-9.079000473022461,-57.85900115966797 -27.40399932861328,10.378999710083008 3.13700008392334,65.79100036621094"></path></g></g><g transform="matrix(1.058541178703308,0.30821141600608826,-0.30821141600608826,1.058541178703308,376.67779541015625,47.77456283569336)" opacity="1" style="display: block;"><g opacity="1" transform="matrix(1,0,0,1,71.9540023803711,84.74400329589844)"><path stroke-linecap="round" stroke-linejoin="round" fill-opacity="0" stroke="rgb(251,237,32)" stroke-opacity="1" stroke-width="10" d=" M42.849998474121094,36.52299880981445 C37.45100021362305,16.509000778198242 27.37299919128418,-2.749000072479248 13.333000183105469,-19.091999053955078 C-0.8550000190734863,-35.608001708984375 -19.090999603271484,-49.14699935913086 -40.630001068115234,-57.479000091552734"></path></g></g><g transform="matrix(1.0852214097976685,0.1944170594215393,-0.21387818455696106,1.1938520669937134,223.1942138671875,304.8946533203125)" opacity="1" style="display: block;"><g opacity="1" transform="matrix(1,0,0,1,145.42599487304688,-113.83100128173828)"><path fill="rgb(0,0,0)" fill-opacity="1" d=" M0,-24.16900062561035 C8.689000129699707,-24.16900062561035 16.110000610351562,-17.749000549316406 19.062000274658203,-8.699999809265137 C19.94300079345703,-6.000999927520752 20.426000595092773,-3.066999912261963 20.426000595092773,0 C20.426000595092773,2.9730000495910645 19.972000122070312,5.821000099182129 19.142000198364258,8.45199966430664 C16.246000289916992,17.631999969482422 8.767999649047852,24.16900062561035 0,24.16900062561035 C-8.336000442504883,24.16900062561035 -15.505999565124512,18.26099967956543 -18.680999755859375,9.789999961853027 C-19.80299949645996,6.796999931335449 -20.426000595092773,3.484999895095825 -20.426000595092773,0 C-20.426000595092773,-2.872999906539917 -20.00200080871582,-5.627999782562256 -19.225000381469727,-8.184000015258789 C-16.391000747680664,-17.503999710083008 -8.852999687194824,-24.16900062561035 0,-24.16900062561035z"></path><path stroke-linecap="butt" stroke-linejoin="miter" fill-opacity="0" stroke-miterlimit="4" stroke="rgb(0,0,0)" stroke-opacity="1" stroke-width="0" d=" M0,-24.16900062561035 C8.689000129699707,-24.16900062561035 16.110000610351562,-17.749000549316406 19.062000274658203,-8.699999809265137 C19.94300079345703,-6.000999927520752 20.426000595092773,-3.066999912261963 20.426000595092773,0 C20.426000595092773,2.9730000495910645 19.972000122070312,5.821000099182129 19.142000198364258,8.45199966430664 C16.246000289916992,17.631999969482422 8.767999649047852,24.16900062561035 0,24.16900062561035 C-8.336000442504883,24.16900062561035 -15.505999565124512,18.26099967956543 -18.680999755859375,9.789999961853027 C-19.80299949645996,6.796999931335449 -20.426000595092773,3.484999895095825 -20.426000595092773,0 C-20.426000595092773,-2.872999906539917 -20.00200080871582,-5.627999782562256 -19.225000381469727,-8.184000015258789 C-16.391000747680664,-17.503999710083008 -8.852999687194824,-24.16900062561035 0,-24.16900062561035z"></path></g></g><g transform="matrix(0.2311847060918808,0.04141666740179062,-0.045562464743852615,0.25432631373405457,366.5528869628906,220.19772338867188)" opacity="1" style="display: block;"><g opacity="1" transform="matrix(1,0,0,1,105.927001953125,-161.32000732421875)"><path fill="rgb(255,255,255)" fill-opacity="1" d=" M0,-24.16900062561035 C11.273109436035156,-24.16900062561035 20.426000595092773,-13.338871002197266 20.426000595092773,0 C20.426000595092773,13.338871002197266 11.273109436035156,24.16900062561035 0,24.16900062561035 C-11.273109436035156,24.16900062561035 -20.426000595092773,13.338871002197266 -20.426000595092773,0 C-20.426000595092773,-13.338871002197266 -11.273109436035156,-24.16900062561035 0,-24.16900062561035z"></path></g></g><g transform="matrix(1.2127684354782104,-0.014822246506810188,0.014822246506810188,1.2127684354782104,90.35528564453125,321.1055908203125)" opacity="1" style="display: block;"><g opacity="1" transform="matrix(1,0,0,1,145.42599487304688,-113.83100128173828)"><path fill="rgb(0,0,0)" fill-opacity="1" d=" M0,-24.16900062561035 C8.689000129699707,-24.16900062561035 16.110000610351562,-17.749000549316406 19.062000274658203,-8.699999809265137 C19.94300079345703,-6.000999927520752 20.426000595092773,-3.066999912261963 20.426000595092773,0 C20.426000595092773,2.9730000495910645 19.972000122070312,5.821000099182129 19.142000198364258,8.45199966430664 C16.246000289916992,17.631999969482422 8.767999649047852,24.16900062561035 0,24.16900062561035 C-8.336000442504883,24.16900062561035 -15.505999565124512,18.26099967956543 -18.680999755859375,9.789999961853027 C-19.80299949645996,6.796999931335449 -20.426000595092773,3.484999895095825 -20.426000595092773,0 C-20.426000595092773,-2.872999906539917 -20.00200080871582,-5.627999782562256 -19.225000381469727,-8.184000015258789 C-16.391000747680664,-17.503999710083008 -8.852999687194824,-24.16900062561035 0,-24.16900062561035z"></path><path stroke-linecap="butt" stroke-linejoin="miter" fill-opacity="0" stroke-miterlimit="4" stroke="rgb(0,0,0)" stroke-opacity="1" stroke-width="0" d=" M0,-24.16900062561035 C8.689000129699707,-24.16900062561035 16.110000610351562,-17.749000549316406 19.062000274658203,-8.699999809265137 C19.94300079345703,-6.000999927520752 20.426000595092773,-3.066999912261963 20.426000595092773,0 C20.426000595092773,2.9730000495910645 19.972000122070312,5.821000099182129 19.142000198364258,8.45199966430664 C16.246000289916992,17.631999969482422 8.767999649047852,24.16900062561035 0,24.16900062561035 C-8.336000442504883,24.16900062561035 -15.505999565124512,18.26099967956543 -18.680999755859375,9.789999961853027 C-19.80299949645996,6.796999931335449 -20.426000595092773,3.484999895095825 -20.426000595092773,0 C-20.426000595092773,-2.872999906539917 -20.00200080871582,-5.627999782562256 -19.225000381469727,-8.184000015258789 C-16.391000747680664,-17.503999710083008 -8.852999687194824,-24.16900062561035 0,-24.16900062561035z"></path></g></g><g transform="matrix(0.24261780083179474,-0.0060447948053479195,0.0060447948053479195,0.24261780083179474,230.44126892089844,209.3959197998047)" opacity="1" style="display: block;"><g opacity="1" transform="matrix(1,0,0,1,106.50800323486328,-164.6269989013672)"><path fill="rgb(255,255,255)" fill-opacity="1" d=" M0,-24.16900062561035 C11.273109436035156,-24.16900062561035 20.426000595092773,-13.338871002197266 20.426000595092773,0 C20.426000595092773,13.338871002197266 11.273109436035156,24.16900062561035 0,24.16900062561035 C-11.273109436035156,24.16900062561035 -20.426000595092773,13.338871002197266 -20.426000595092773,0 C-20.426000595092773,-13.338871002197266 -11.273109436035156,-24.16900062561035 0,-24.16900062561035z"></path></g></g><g transform="matrix(1.0471398830413818,0.34496620297431946,-0.34496620297431946,1.0471398830413818,260.0077819824219,159.49679565429688)" opacity="1" style="display: block;"><g opacity="1" transform="matrix(1,0,0,1,98.04100036621094,61.84400177001953)"><path fill="rgb(255,93,31)" fill-opacity="1" d=" M-85.91400146484375,23.849000930786133 C-83.25900268554688,39.36800003051758 -49.72600173950195,46.8650016784668 -8.732000350952148,38.72100067138672 C32.262001037597656,30.57699966430664 83.89600372314453,-6.783999919891357 57.33300018310547,-11.251999855041504 C64.80599975585938,-16.450000762939453 72.98500061035156,-33.749000549316406 31.31999969482422,-24.19499969482422 C18.22800064086914,-21.19300079345703 5.175000190734863,-45.176998138427734 -16.174999237060547,-40.93600082397461 C-40.00600051879883,-36.20199966430664 -40.321998596191406,-9.475000381469727 -60.066001892089844,-2.6649999618530273 C-76.27899932861328,2.927999973297119 -89.0009994506836,5.804999828338623 -85.91400146484375,23.849000930786133z"></path><path stroke-linecap="round" stroke-linejoin="round" fill-opacity="0" stroke="rgb(207,53,2)" stroke-opacity="1" stroke-width="8" d=" M-85.91400146484375,23.849000930786133 C-83.25900268554688,39.36800003051758 -49.72600173950195,46.8650016784668 -8.732000350952148,38.72100067138672 C32.262001037597656,30.57699966430664 83.89600372314453,-6.783999919891357 57.33300018310547,-11.251999855041504 C64.80599975585938,-16.450000762939453 72.98500061035156,-33.749000549316406 31.31999969482422,-24.19499969482422 C18.22800064086914,-21.19300079345703 5.175000190734863,-45.176998138427734 -16.174999237060547,-40.93600082397461 C-40.00600051879883,-36.20199966430664 -40.321998596191406,-9.475000381469727 -60.066001892089844,-2.6649999618530273 C-76.27899932861328,2.927999973297119 -89.0009994506836,5.804999828338623 -85.91400146484375,23.849000930786133z"></path></g></g><g transform="matrix(1.0471398830413818,0.34496620297431946,-0.34496620297431946,1.0471398830413818,263.17559814453125,196.3424530029297)" opacity="1" style="display: block;"><g opacity="1" transform="matrix(1,0,0,1,81.50399780273438,36.75899887084961)"><path stroke-linecap="round" stroke-linejoin="round" fill-opacity="0" stroke="rgb(125,9,9)" stroke-opacity="1" stroke-width="7.2" d=" M61.130001068115234,-17.52199935913086 C26.847000122070312,7.045000076293945 -20.51300048828125,22.677000045776367 -67.11699676513672,13.595999717712402"></path></g></g><g transform="matrix(1.0471398830413818,0.34496620297431946,-0.34496620297431946,1.0471398830413818,281.73406982421875,202.65711975097656)" opacity="1" style="display: block;"><g opacity="1" transform="matrix(1,0,0,1,24.70599937438965,22.10700035095215)"><path stroke-linecap="round" stroke-linejoin="round" fill-opacity="0" stroke="rgb(255,180,132)" stroke-opacity="1" stroke-width="8" d=" M-19.70599937438965,16.01099967956543 C-2.002000093460083,17.06800079345703 7.2820000648498535,7.4120001792907715 18.493000030517578,-14.682999610900879"></path></g></g><g transform="matrix(-0.9206024408340454,0.39049839973449707,0.39049839973449707,0.9206024408340454,171.0647430419922,178.45159912109375)" opacity="1" style="display: block;"><path fill="rgb(255,213,39)" fill-opacity="1" d=" M82.33,175.36 C100.05,141.42 90.84,81.97 76.81,49.27 C65.81,25.93 50.64,22.28 40.48,25.91 C32.43,28.59 27.96,38.41 28.64,54.13 C31.82,72.81 31.32,113.3 19.33,132.24"></path><g opacity="1" transform="matrix(1,0,0,1,74.38400268554688,100.1780014038086)"><path stroke-linecap="round" stroke-linejoin="miter" fill-opacity="0" stroke-miterlimit="10" stroke="rgb(249,143,22)" stroke-opacity="1" stroke-width="10" d=" M7.947000026702881,75.1780014038086 C25.661195755004883,41.24274826049805 16.457704544067383,-18.21263885498047 2.42990779876709,-50.90635681152344 C-8.576775550842285,-74.25267028808594 -23.740432739257812,-77.89949798583984 -33.90131378173828,-74.26469421386719 C-41.952674865722656,-71.59114837646484 -46.42393493652344,-61.771915435791016 -45.74789810180664,-46.04904556274414 C-42.56412887573242,-27.36420249938965 -43.06624984741211,13.126266479492188 -55.05799102783203,32.06083679199219"></path></g></g><g transform="matrix(1.0499534606933594,0.009776025079190731,-0.009776025079190731,1.0499534606933594,397.00897216796875,241.47128295898438)" opacity="1" style="display: block;"><g opacity="1" transform="matrix(1,0,0,1,35.28499984741211,48.323001861572266)"><path stroke-linecap="round" stroke-linejoin="round" fill-opacity="0" stroke="rgb(251,237,32)" stroke-opacity="1" stroke-width="8" d=" M-236.94700622558594,14.246000289916992 C-255.5070037841797,-3.122999906539917 -266.33099365234375,-26.277999877929688 -268.4599914550781,-55.487998962402344"></path></g></g><g transform="matrix(1.0499534606933594,0.009776025079190731,-0.009776025079190731,1.0499534606933594,397.00897216796875,241.47128295898438)" opacity="1" style="display: block;"><g opacity="1" transform="matrix(1,0,0,1,35.28499984741211,48.323001861572266)"><path stroke-linecap="round" stroke-linejoin="round" fill-opacity="0" stroke="rgb(255,255,255)" stroke-opacity="1" stroke-width="8" d=" M-285.5989990234375,-3.140000104904175 C-289.0379943847656,-20.159000396728516 -292.34600830078125,-40.97200012207031 -281.5669860839844,-56.749000549316406"></path></g></g></g><g clip-path="url(#__lottie_element_103)" transform="matrix(1,0,0,1,0,0)" opacity="1" style="display: block;"><g clip-path="url(#__lottie_element_107)" transform="matrix(1,0,0,0.800000011920929,13,112.39999389648438)" opacity="1" style="display: block;"><g transform="matrix(1.5022599697113037,0,0,1.5022599697113037,-7.507354736328125,334.35150146484375)" opacity="1" style="display: block;"><g opacity="1" transform="matrix(1,0,0,1,176.4949951171875,64.81999969482422)"><path stroke-linecap="round" stroke-linejoin="round" fill-opacity="0" stroke="rgb(3,180,255)" stroke-opacity="1" stroke-width="0" d=" M151.4949951171875,0 C151.4949951171875,21.992000579833984 83.66899871826172,39.81999969482422 0.0010000000474974513,39.81999969482422 C-83.66699981689453,39.81999969482422 -151.49400329589844,21.992000579833984 -151.49400329589844,0 C-151.49400329589844,-21.992000579833984 -83.66699981689453,-39.81999969482422 0.0010000000474974513,-39.81999969482422 C83.66899871826172,-39.81999969482422 151.4949951171875,-21.992000579833984 151.4949951171875,0z"></path></g></g></g><g clip-path="url(#__lottie_element_204)" transform="matrix(1,0,0,0.800000011920929,13,112.39999389648438)" opacity="1" style="display: block;"><g transform="matrix(0.6773240566253662,0,0,0.6773240566253662,138.08969116210938,387.8238525390625)" opacity="1" style="display: block;"><g opacity="1" transform="matrix(1,0,0,1,176.4949951171875,64.81999969482422)"><path stroke-linecap="round" stroke-linejoin="round" fill-opacity="0" stroke="rgb(3,180,255)" stroke-opacity="1" stroke-width="2.282192789815604" d=" M151.4949951171875,0 C151.4949951171875,21.992000579833984 83.66899871826172,39.81999969482422 0.0010000000474974513,39.81999969482422 C-83.66699981689453,39.81999969482422 -151.49400329589844,21.992000579833984 -151.49400329589844,0 C-151.49400329589844,-21.992000579833984 -83.66699981689453,-39.81999969482422 0.0010000000474974513,-39.81999969482422 C83.66899871826172,-39.81999969482422 151.4949951171875,-21.992000579833984 151.4949951171875,0z"></path></g></g></g><g clip-path="url(#__lottie_element_111)" transform="matrix(1,0,0,0.800000011920929,13,112.39999389648438)" opacity="1" style="display: none;"><g transform="matrix(1.5022599697113037,0,0,1.5022599697113037,-7.507354736328125,334.35150146484375)" opacity="1" style="display: none;"><g opacity="1" transform="matrix(1,0,0,1,176.4949951171875,64.81999969482422)"><path stroke-linecap="round" stroke-linejoin="round" fill-opacity="0" stroke="rgb(3,180,255)" stroke-opacity="1" stroke-width="0" d=" M151.4949951171875,0 C151.4949951171875,21.992000579833984 83.66899871826172,39.81999969482422 0.0010000000474974513,39.81999969482422 C-83.66699981689453,39.81999969482422 -151.49400329589844,21.992000579833984 -151.49400329589844,0 C-151.49400329589844,-21.992000579833984 -83.66699981689453,-39.81999969482422 0.0010000000474974513,-39.81999969482422 C83.66899871826172,-39.81999969482422 151.4949951171875,-21.992000579833984 151.4949951171875,0z"></path></g></g></g><g transform="matrix(1.0499656200408936,0.008484824560582638,-0.008484824560582638,1.0499656200408936,52.541412353515625,191.77664184570312)" opacity="1" style="display: block;"><path fill="rgb(255,213,39)" fill-opacity="1" d=" M87.25,255.02 C50.72,246.05 37.38,204.69 37.38,173.7 C37.38,143.19 42.43,113.55 75.41,86.2 C105.15,61.53 163.74,32.48 208.14,31.9 C278.33,30.98 321.45,63.24 330.68,74.55 C347.92,95.7 364.79,127.46 366.2,173.4 C367.24,207.08 349.11,245.79 298.59,254.1 C226.17,266.01 150.01,270.44 87.25,255.02z"></path><g opacity="1" transform="matrix(1,0,0,1,205.83900451660156,156.75)"><path stroke-linecap="round" stroke-linejoin="miter" fill-opacity="0" stroke-miterlimit="10" stroke="rgb(249,143,22)" stroke-opacity="1" stroke-width="20" d=" M-118.58899688720703,98.27200317382812 C-155.11500549316406,89.30000305175781 -168.45799255371094,47.94300079345703 -168.45799255371094,16.94700050354004 C-168.45799255371094,-13.5649995803833 -163.40899658203125,-43.196998596191406 -130.43099975585938,-70.55000305175781 C-100.68699645996094,-95.22000122070312 -42.097999572753906,-124.2699966430664 2.305000066757202,-124.8499984741211 C72.48799896240234,-125.76699829101562 115.61199951171875,-93.51000213623047 124.83799743652344,-82.19599914550781 C142.08200073242188,-61.04999923706055 158.9550018310547,-29.285999298095703 160.36300659179688,16.645000457763672 C161.39599609375,50.334999084472656 143.27200317382812,89.04399871826172 92.75499725341797,97.35099792480469 C20.326000213623047,109.26100158691406 -55.83100128173828,113.68699645996094 -118.58899688720703,98.27200317382812z"></path></g></g><g transform="matrix(1.0499656200408936,0.008484824560582638,-0.008484824560582638,1.0499656200408936,62.54054260253906,194.938232421875)" opacity="1" style="display: block;"><path fill="rgb(255,213,39)" fill-opacity="1" d=" M308.84,149.88 C330.97,126.84 344.47,133.74 349.74,141.25 C369.18,168.96 370.16,234.91 294.35,252.67"></path><g opacity="1" transform="matrix(1,0,0,1,205.83900451660156,156.75)"><path stroke-linecap="round" stroke-linejoin="miter" fill-opacity="0" stroke-miterlimit="10" stroke="rgb(249,143,22)" stroke-opacity="1" stroke-width="10" d=" M103.00199890136719,-6.873000144958496 C125.12899780273438,-29.90999984741211 138.63099670410156,-23.007999420166016 143.89599609375,-15.503999710083008 C163.33599853515625,12.208000183105469 164.32000732421875,78.16100311279297 88.50800323486328,95.9229965209961"></path></g></g><g transform="matrix(1.0499656200408936,0.008484824560582638,-0.008484824560582638,1.0499656200408936,52.541412353515625,191.77664184570312)" opacity="1" style="display: block;"><path fill="rgb(255,213,39)" fill-opacity="1" d=" M87.25,255.02 C50.72,246.05 37.38,204.69 37.38,173.7 C37.38,143.19 42.43,113.55 75.41,86.2 C105.15,61.53 163.74,32.48 208.14,31.9 C278.33,30.98 321.45,63.24 330.68,74.55 C347.92,95.7 364.79,127.46 366.2,173.4 C367.24,207.08 349.11,245.79 298.59,254.1 C226.17,266.01 150.01,270.44 87.25,255.02z"></path><g opacity="1" transform="matrix(1,0,0,1,205.83900451660156,156.75)"></g></g><g transform="matrix(1.0442900657653809,-0.10935390740633011,0.10935390740633011,1.0442900657653809,59.06787109375,292.6402282714844)" opacity="1" style="display: block;"><g opacity="1" transform="matrix(1,0,0,1,38.819000244140625,73.84600067138672)"><path stroke-linecap="round" stroke-linejoin="round" fill-opacity="0" stroke="rgb(255,255,255)" stroke-opacity="1" stroke-width="10" d=" M-3.805999994277954,24.42799949645996 C-1.2120000123977661,45.957000732421875 7.031000137329102,67.60600280761719 24.68199920654297,78.30000305175781"></path></g></g><g transform="matrix(1.0499656200408936,0.008484824560582638,-0.008484824560582638,1.0499656200408936,379.2433166503906,334.2529296875)" opacity="1" style="display: block;"><g opacity="1" transform="matrix(1,0,0,1,35.6879997253418,48.13999938964844)"><path stroke-linecap="round" stroke-linejoin="round" fill-opacity="0" stroke="rgb(251,237,32)" stroke-opacity="1" stroke-width="10" d=" M-29.263999938964844,47.26599884033203 C-11.529999732971191,34.82400131225586 10.487000465393066,11.800000190734863 -12.76099967956543,-47.94599914550781"></path></g></g><g transform="matrix(0.9995039105415344,-0.031463075429201126,0.031463075429201126,0.9995039105415344,255.48025512695312,261.1479187011719)" opacity="1" style="display: block;"><g opacity="1" transform="matrix(1,0,0,1,150.06199645996094,56.077999114990234)"><path fill="rgb(255,213,39)" fill-opacity="1" d=" M0,-11.57800006866455 C6.380791664123535,-11.57800006866455 11.56149959564209,-6.389898300170898 11.56149959564209,0 C11.56149959564209,6.389898300170898 6.380791664123535,11.57800006866455 0,11.57800006866455 C-6.380791664123535,11.57800006866455 -11.56149959564209,6.389898300170898 -11.56149959564209,0 C-11.56149959564209,-6.389898300170898 -6.380791664123535,-11.57800006866455 0,-11.57800006866455z"></path></g></g><g transform="matrix(0.9144013524055481,-0.4048060476779938,-0.4048060476779938,-0.9144013524055481,392.7088928222656,466.4756164550781)" opacity="1" style="display: block;"><path fill="rgb(255,213,39)" fill-opacity="1" d=" M90.03,168.67 C117.36,128.45 119.73,68.91 92.53,41.93 C71.99,21.57 52.61,29.59 59.6,48.13 C69.27,73.75 77.17,91.58 70.07,130.51"></path><g opacity="1" transform="matrix(1,0,0,1,74.38400268554688,100.1780014038086)"><path stroke-linecap="round" stroke-linejoin="miter" fill-opacity="0" stroke-miterlimit="10" stroke="rgb(249,143,22)" stroke-opacity="1" stroke-width="10" d=" M15.64799976348877,68.48799896240234 C42.97478103637695,28.274890899658203 45.34400177001953,-31.26799964904785 18.14299964904785,-58.244998931884766 C-2.3929998874664307,-78.61100006103516 -21.77899932861328,-70.58899688720703 -14.781999588012695,-52.053001403808594 C-5.110000133514404,-26.430999755859375 2.7839999198913574,-8.600000381469727 -4.311999797821045,30.32699966430664"></path></g></g><g transform="matrix(1.0499645471572876,0.008484803140163422,-0.008484803140163422,1.0499645471572876,349.97161865234375,250.7227020263672)" opacity="1" style="display: block;"><g opacity="1" transform="matrix(1,0,0,1,35.28499984741211,48.323001861572266)"><path stroke-linecap="round" stroke-linejoin="round" fill-opacity="0" stroke="rgb(251,237,32)" stroke-opacity="1" stroke-width="10" d=" M59.555999755859375,64.27200317382812 C55.97200012207031,33.69900131225586 46.69200134277344,16.38800048828125 20.714000701904297,-6.447999954223633"></path></g></g><g transform="matrix(1.0858643054962158,0.19079402089118958,-0.19079402089118958,1.0858643054962158,83.49560546875,-60.324066162109375)" opacity="1" style="display: block;"><g opacity="1" transform="matrix(1,0,0,1,196.52099609375,174.67799377441406)"><path fill="rgb(255,213,39)" fill-opacity="1" d=" M139.04600524902344,92.73999786376953 C161.73699951171875,64.84600067138672 171.52099609375,30.104999542236328 164.11500549316406,-7.175000190734863 C148.4239959716797,-86.15599822998047 61.35599899291992,-149.67799377441406 -26.993999481201172,-132.12600708007812 C-115.34500122070312,-114.5739974975586 -171.52099609375,-22.594999313354492 -155.8300018310547,56.38600158691406 C-149.8820037841797,86.33000183105469 -131.48399353027344,117.38800048828125 -107.82599639892578,137.3350067138672"></path><path stroke-linecap="round" stroke-linejoin="miter" fill-opacity="0" stroke-miterlimit="10" stroke="rgb(249,143,22)" stroke-opacity="1" stroke-width="9.5" d=" M139.04600524902344,92.73999786376953 C161.73699951171875,64.84600067138672 171.52099609375,30.104999542236328 164.11500549316406,-7.175000190734863 C148.4239959716797,-86.15599822998047 61.35599899291992,-149.67799377441406 -26.993999481201172,-132.12600708007812 C-115.34500122070312,-114.5739974975586 -171.52099609375,-22.594999313354492 -155.8300018310547,56.38600158691406 C-149.8820037841797,86.33000183105469 -131.48399353027344,117.38800048828125 -107.82599639892578,137.3350067138672"></path></g></g><g style="display: none;"><g><path fill="url(#__lottie_element_149)"></path></g></g><g style="display: none;"><g><path fill="url(#__lottie_element_153)"></path></g></g><g transform="matrix(0.5887885093688965,0.9321113228797913,-0.9321113228797913,0.5887885093688965,254.416259765625,-20.317874908447266)" opacity="1" style="display: block;"><g opacity="1" transform="matrix(1,0,0,1,49.17599868774414,105.06700134277344)"><path stroke-linecap="round" stroke-linejoin="round" fill-opacity="0" stroke="rgb(255,255,255)" stroke-opacity="1" stroke-width="10" d=" M20.860000610351562,90.21299743652344 C28.208999633789062,98.08499908447266 36.95899963378906,105.41699981689453 47.30400085449219,111.9800033569336"></path></g></g><g transform="matrix(0.5887885093688965,0.9321113228797913,-0.9321113228797913,0.5887885093688965,254.416259765625,-20.317874908447266)" opacity="1" style="display: block;"><g opacity="1" transform="matrix(1,0,0,1,49.17599868774414,105.06700134277344)"><path stroke-linecap="round" stroke-linejoin="round" fill-opacity="0" stroke="rgb(255,255,255)" stroke-opacity="1" stroke-width="10" d=" M4.061999797821045,-74.96499633789062 C-11.842000007629395,-47.8390007019043 -26.277999877929688,18.349000930786133 6.13100004196167,70.92500305175781"></path></g></g><g transform="matrix(1.0858643054962158,0.19079402089118958,-0.19079402089118958,1.0858643054962158,316.3839416503906,38.59042739868164)" opacity="1" style="display: block;"><g opacity="1" transform="matrix(1,0,0,1,71.9540023803711,84.74400329589844)"><path stroke-linecap="round" stroke-linejoin="round" fill-opacity="0" stroke="rgb(251,237,32)" stroke-opacity="1" stroke-width="10" d=" M41.39400100708008,31.506999969482422 C35.733001708984375,13.300999641418457 26.195999145507812,-4.11899995803833 13.333000183105469,-19.091999053955078 C-1.8930000066757202,-36.816001892089844 -21.77899932861328,-51.111000061035156 -45.40800094604492,-59.222999572753906"></path></g></g><g transform="matrix(1.2073731422424316,0.11522641777992249,-0.11522641777992249,1.2073731422424316,139.55413818359375,306.74200439453125)" opacity="1" style="display: block;"><g opacity="1" transform="matrix(1,0,0,1,145.42599487304688,-113.83100128173828)"><path fill="rgb(0,0,0)" fill-opacity="1" d=" M0,-24.16900062561035 C8.421045303344727,-24.16900062561035 15.638529777526855,-18.075592041015625 18.65593719482422,-9.437578201293945 C19.784406661987305,-6.5913262367248535 20.426000595092773,-3.384097099304199 20.426000595092773,0 C20.426000595092773,3.298360824584961 19.81085777282715,6.427150249481201 18.72890281677246,9.211380004882812 C15.762574195861816,17.9688777923584 8.4931001663208,24.16900062561035 0,24.16900062561035 C-8.099078178405762,24.16900062561035 -15.087628364562988,18.54258155822754 -18.30843162536621,10.431754112243652 C-19.656715393066406,7.317348480224609 -20.426000595092773,3.765350103378296 -20.426000595092773,0 C-20.426000595092773,-3.2071518898010254 -19.838220596313477,-6.25111722946167 -18.804607391357422,-8.966940879821777 C-15.894826889038086,-17.852128982543945 -8.57062816619873,-24.16900062561035 0,-24.16900062561035z"></path><path stroke-linecap="butt" stroke-linejoin="miter" fill-opacity="0" stroke-miterlimit="4" stroke="rgb(0,0,0)" stroke-opacity="1" stroke-width="0" d=" M0,-24.16900062561035 C8.421045303344727,-24.16900062561035 15.638529777526855,-18.075592041015625 18.65593719482422,-9.437578201293945 C19.784406661987305,-6.5913262367248535 20.426000595092773,-3.384097099304199 20.426000595092773,0 C20.426000595092773,3.298360824584961 19.81085777282715,6.427150249481201 18.72890281677246,9.211380004882812 C15.762574195861816,17.9688777923584 8.4931001663208,24.16900062561035 0,24.16900062561035 C-8.099078178405762,24.16900062561035 -15.087628364562988,18.54258155822754 -18.30843162536621,10.431754112243652 C-19.656715393066406,7.317348480224609 -20.426000595092773,3.765350103378296 -20.426000595092773,0 C-20.426000595092773,-3.2071518898010254 -19.838220596313477,-6.25111722946167 -18.804607391357422,-8.966940879821777 C-15.894826889038086,-17.852128982543945 -8.57062816619873,-24.16900062561035 0,-24.16900062561035z"></path></g></g><g transform="matrix(0.2587192952632904,0.010976285673677921,-0.01144642848521471,0.24697785079479218,319.2088623046875,220.3419647216797)" opacity="1" style="display: none;"><g opacity="1" transform="matrix(1,0,0,1,105.927001953125,-161.32000732421875)"><path fill="rgb(255,255,255)" fill-opacity="1" d=" M0,-24.16900062561035 C11.273109436035156,-24.16900062561035 20.426000595092773,-13.338871002197266 20.426000595092773,0 C20.426000595092773,13.338871002197266 11.273109436035156,24.16900062561035 0,24.16900062561035 C-11.273109436035156,24.16900062561035 -20.426000595092773,13.338871002197266 -20.426000595092773,0 C-20.426000595092773,-13.338871002197266 -11.273109436035156,-24.16900062561035 0,-24.16900062561035z"></path></g></g><g transform="matrix(0.25720664858818054,0.024546677246689796,-0.024546677246689796,0.25720664858818054,288.05517578125,211.77076721191406)" opacity="1" style="display: block;"><g opacity="1" transform="matrix(1,0,0,1,105.927001953125,-161.32000732421875)"><path fill="rgb(255,255,255)" fill-opacity="1" d=" M0,-24.16900062561035 C11.273109436035156,-24.16900062561035 20.426000595092773,-13.338871002197266 20.426000595092773,0 C20.426000595092773,13.338871002197266 11.273109436035156,24.16900062561035 0,24.16900062561035 C-11.273109436035156,24.16900062561035 -20.426000595092773,13.338871002197266 -20.426000595092773,0 C-20.426000595092773,-13.338871002197266 -11.273109436035156,-24.16900062561035 0,-24.16900062561035z"></path></g></g><g transform="matrix(1.1524757146835327,-0.10905163735151291,0.11425494402647018,1.207465410232544,32.46622085571289,334.5630187988281)" opacity="1" style="display: block;"><g opacity="1" transform="matrix(1,0,0,1,145.42599487304688,-113.83100128173828)"><path fill="rgb(0,0,0)" fill-opacity="1" d=" M0,-24.16900062561035 C8.689000129699707,-24.16900062561035 16.110000610351562,-17.749000549316406 19.062000274658203,-8.699999809265137 C19.94300079345703,-6.000999927520752 20.426000595092773,-3.066999912261963 20.426000595092773,0 C20.426000595092773,2.9730000495910645 19.972000122070312,5.821000099182129 19.142000198364258,8.45199966430664 C16.246000289916992,17.631999969482422 8.767999649047852,24.16900062561035 0,24.16900062561035 C-8.336000442504883,24.16900062561035 -15.505999565124512,18.26099967956543 -18.680999755859375,9.789999961853027 C-19.80299949645996,6.796999931335449 -20.426000595092773,3.484999895095825 -20.426000595092773,0 C-20.426000595092773,-2.872999906539917 -20.00200080871582,-5.627999782562256 -19.225000381469727,-8.184000015258789 C-16.391000747680664,-17.503999710083008 -8.852999687194824,-24.16900062561035 0,-24.16900062561035z"></path><path stroke-linecap="butt" stroke-linejoin="miter" fill-opacity="0" stroke-miterlimit="4" stroke="rgb(0,0,0)" stroke-opacity="1" stroke-width="0" d=" M0,-24.16900062561035 C8.689000129699707,-24.16900062561035 16.110000610351562,-17.749000549316406 19.062000274658203,-8.699999809265137 C19.94300079345703,-6.000999927520752 20.426000595092773,-3.066999912261963 20.426000595092773,0 C20.426000595092773,2.9730000495910645 19.972000122070312,5.821000099182129 19.142000198364258,8.45199966430664 C16.246000289916992,17.631999969482422 8.767999649047852,24.16900062561035 0,24.16900062561035 C-8.336000442504883,24.16900062561035 -15.505999565124512,18.26099967956543 -18.680999755859375,9.789999961853027 C-19.80299949645996,6.796999931335449 -20.426000595092773,3.484999895095825 -20.426000595092773,0 C-20.426000595092773,-2.872999906539917 -20.00200080871582,-5.627999782562256 -19.225000381469727,-8.184000015258789 C-16.391000747680664,-17.503999710083008 -8.852999687194824,-24.16900062561035 0,-24.16900062561035z"></path></g></g><g transform="matrix(0.24343591928482056,-0.03521231189370155,0.04017297178506851,0.2294277399778366,179.9696502685547,227.0762176513672)" opacity="1" style="display: none;"><g opacity="1" transform="matrix(1,0,0,1,106.50800323486328,-164.6269989013672)"><path fill="rgb(255,255,255)" fill-opacity="1" d=" M0,-24.16900062561035 C11.273109436035156,-24.16900062561035 20.426000595092773,-13.338871002197266 20.426000595092773,0 C20.426000595092773,13.338871002197266 11.273109436035156,24.16900062561035 0,24.16900062561035 C-11.273109436035156,24.16900062561035 -20.426000595092773,13.338871002197266 -20.426000595092773,0 C-20.426000595092773,-13.338871002197266 -11.273109436035156,-24.16900062561035 0,-24.16900062561035z"></path></g></g><g transform="matrix(0.23030175268650055,-0.02488512545824051,0.025786608457565308,0.2413174957036972,156.50384521484375,212.34544372558594)" opacity="1" style="display: block;"><g opacity="1" transform="matrix(1,0,0,1,106.50800323486328,-164.6269989013672)"><path fill="rgb(255,255,255)" fill-opacity="1" d=" M0,-24.16900062561035 C11.273109436035156,-24.16900062561035 20.426000595092773,-13.338871002197266 20.426000595092773,0 C20.426000595092773,13.338871002197266 11.273109436035156,24.16900062561035 0,24.16900062561035 C-11.273109436035156,24.16900062561035 -20.426000595092773,13.338871002197266 -20.426000595092773,0 C-20.426000595092773,-13.338871002197266 -11.273109436035156,-24.16900062561035 0,-24.16900062561035z"></path></g></g><g transform="matrix(1.0719082355499268,0.25790736079216003,-0.25790736079216003,1.0719082355499268,179.3280029296875,159.67135620117188)" opacity="1" style="display: block;"><g opacity="1" transform="matrix(1,0,0,1,98.04100036621094,61.84400177001953)"><path fill="rgb(255,93,31)" fill-opacity="1" d=" M-81.08799743652344,23.038999557495117 C-84.08599853515625,38.92499923706055 -49.65999984741211,47.18199920654297 -8.732000350952148,38.72100067138672 C35.09600067138672,29.624000549316406 82.9219970703125,-3.2269999980926514 63.30400085449219,-14.737000465393066 C64.56300354003906,-26.333999633789062 59.72999954223633,-30.961999893188477 27.01300048828125,-22.77400016784668 C9.189000129699707,-18.91900062561035 1.225000023841858,-44.04999923706055 -20.125,-39.808998107910156 C-43.95600128173828,-35.07500076293945 -39.89899826049805,-6.199999809265137 -60.066001892089844,-2.6649999618530273 C-83.177001953125,-0.25699999928474426 -90.55999755859375,11.192000389099121 -81.08799743652344,23.038999557495117z"></path><path stroke-linecap="round" stroke-linejoin="round" fill-opacity="0" stroke="rgb(207,53,2)" stroke-opacity="1" stroke-width="8" d=" M-81.08799743652344,23.038999557495117 C-84.08599853515625,38.92499923706055 -49.65999984741211,47.18199920654297 -8.732000350952148,38.72100067138672 C35.09600067138672,29.624000549316406 82.9219970703125,-3.2269999980926514 63.30400085449219,-14.737000465393066 C64.56300354003906,-26.333999633789062 59.72999954223633,-30.961999893188477 27.01300048828125,-22.77400016784668 C9.189000129699707,-18.91900062561035 1.225000023841858,-44.04999923706055 -20.125,-39.808998107910156 C-43.95600128173828,-35.07500076293945 -39.89899826049805,-6.199999809265137 -60.066001892089844,-2.6649999618530273 C-83.177001953125,-0.25699999928474426 -90.55999755859375,11.192000389099121 -81.08799743652344,23.038999557495117z"></path></g></g><g transform="matrix(1.0719082355499268,0.25790736079216003,-0.25790736079216003,1.0719082355499268,185.50755310058594,196.13299560546875)" opacity="1" style="display: block;"><g opacity="1" transform="matrix(1,0,0,1,81.50399780273438,36.75899887084961)"><path stroke-linecap="round" stroke-linejoin="round" fill-opacity="0" stroke="rgb(125,9,9)" stroke-opacity="1" stroke-width="7.2" d=" M60.57099914550781,-19.854999542236328 C18.663000106811523,16.017000198364258 -47.8390007019043,25.468000411987305 -72.177001953125,15.23900032043457"></path></g></g><g transform="matrix(1.0719082355499268,0.25790736079216003,-0.25790736079216003,1.0719082355499268,204.52145385742188,200.90402221679688)" opacity="1" style="display: block;"><g opacity="1" transform="matrix(1,0,0,1,24.70599937438965,22.10700035095215)"><path stroke-linecap="round" stroke-linejoin="round" fill-opacity="0" stroke="rgb(255,180,132)" stroke-opacity="1" stroke-width="8" d=" M-17.60099983215332,16.086999893188477 C-0.7850000262260437,16.273000717163086 8.23900032043457,5.958000183105469 19.413999557495117,-16.516000747680664"></path></g></g><g transform="matrix(-0.8202179074287415,0.5720493197441101,0.5720493197441101,0.8202179074287415,63.9680061340332,185.03170776367188)" opacity="1" style="display: block;"><path fill="rgb(255,213,39)" fill-opacity="1" d=" M82.33,175.36 C89.15,137.24 82.91,90.35 77.39,55.01 C72.7,31.34 59.55,25.79 48.92,28.1 C39.85,29.86 32.81,41.08 28.8,57.52 C27.4,73.47 22.6,111.48 13.83,141.6"></path><g opacity="1" transform="matrix(1,0,0,1,74.38400268554688,100.1780014038086)"><path stroke-linecap="round" stroke-linejoin="miter" fill-opacity="0" stroke-miterlimit="10" stroke="rgb(249,143,22)" stroke-opacity="1" stroke-width="10" d=" M7.947000026702881,75.1780014038086 C14.761983871459961,37.066429138183594 8.522398948669434,-9.82530403137207 3.0085651874542236,-45.166664123535156 C-1.6867671012878418,-68.84233093261719 -14.83319091796875,-74.39071655273438 -25.46527671813965,-72.07425689697266 C-34.530277252197266,-70.31572723388672 -41.570335388183594,-59.09779739379883 -45.58230972290039,-42.66081237792969 C-46.98517990112305,-26.708229064941406 -51.784461975097656,11.304150581359863 -60.54930114746094,41.422237396240234"></path></g></g><g transform="matrix(1.02937650680542,-0.2070782631635666,0.2070782631635666,1.02937650680542,298.0534362792969,200.07467651367188)" opacity="1" style="display: block;"><g opacity="1" transform="matrix(1,0,0,1,35.28499984741211,48.323001861572266)"><path stroke-linecap="round" stroke-linejoin="round" fill-opacity="0" stroke="rgb(251,237,32)" stroke-opacity="1" stroke-width="8" d=" M-229.89100646972656,12.571999549865723 C-248.18499755859375,-10.196999549865723 -260.1210021972656,-28.575000762939453 -268.5639953613281,-47.33000183105469"></path></g></g><g transform="matrix(1.02937650680542,-0.2070782631635666,0.2070782631635666,1.02937650680542,298.0534362792969,200.07467651367188)" opacity="1" style="display: block;"><g opacity="1" transform="matrix(1,0,0,1,35.28499984741211,48.323001861572266)"><path stroke-linecap="round" stroke-linejoin="round" fill-opacity="0" stroke="rgb(255,255,255)" stroke-opacity="1" stroke-width="8" d=" M-278.0769958496094,-0.7289999723434448 C-283.0740051269531,-19.100000381469727 -293.3080139160156,-38.11199951171875 -284.6260070800781,-51.88100051879883"></path></g></g></g></g></svg> 