<svg xmlns="http://www.w3.org/2000/svg" xmlns:xlink="http://www.w3.org/1999/xlink" width="2000" zoomAndPan="magnify" viewBox="0 0 1500 1499.999933" height="2000" preserveAspectRatio="xMidYMid meet" version="1.0"><defs><clipPath id="0e6e2ffa35"><path d="M 32.046875 28.847656 L 1467.953125 28.847656 L 1467.953125 1471 L 32.046875 1471 Z M 32.046875 28.847656 " clip-rule="nonzero"/></clipPath><clipPath id="b47beafc46"><path d="M 70.296875 28.847656 L 1429.703125 28.847656 C 1439.847656 28.847656 1449.574219 32.878906 1456.75 40.050781 C 1463.921875 47.222656 1467.953125 56.953125 1467.953125 67.097656 L 1467.953125 1432.902344 C 1467.953125 1443.046875 1463.921875 1452.773438 1456.75 1459.949219 C 1449.574219 1467.121094 1439.847656 1471.152344 1429.703125 1471.152344 L 70.296875 1471.152344 C 60.152344 1471.152344 50.425781 1467.121094 43.25 1459.949219 C 36.078125 1452.773438 32.046875 1443.046875 32.046875 1432.902344 L 32.046875 67.097656 C 32.046875 56.953125 36.078125 47.222656 43.25 40.050781 C 50.425781 32.878906 60.152344 28.847656 70.296875 28.847656 Z M 70.296875 28.847656 " clip-rule="nonzero"/></clipPath><clipPath id="6b7abaf97e"><path d="M 290.363281 360.308594 L 1209.496094 360.308594 L 1209.496094 1139.308594 L 290.363281 1139.308594 Z M 290.363281 360.308594 " clip-rule="nonzero"/></clipPath></defs><g clip-path="url(#0e6e2ffa35)"><g clip-path="url(#b47beafc46)"><path fill="#ffffff" d="M 32.046875 28.847656 L 1467.953125 28.847656 L 1467.953125 1470.363281 L 32.046875 1470.363281 Z M 32.046875 28.847656 " fill-opacity="1" fill-rule="nonzero"/></g></g><g clip-path="url(#6b7abaf97e)"><path fill="#2d3343" d="M 1201.109375 671.894531 L 896.769531 368.675781 C 878.792969 350.765625 848.148438 363.496094 848.148438 388.867188 L 848.148438 536.511719 C 832.558594 535.074219 816.773438 534.289062 800.8125 534.289062 C 518.898438 534.289062 290.363281 762.824219 290.363281 1044.730469 C 290.363281 1075.34375 293.0625 1105.316406 298.234375 1134.441406 C 299.3125 1140.5 307.769531 1141.074219 309.601562 1135.203125 C 372.625 932.761719 605.203125 817.949219 839.042969 817.949219 C 842.085938 817.949219 845.117188 818.035156 848.148438 818.09375 L 848.148438 995.316406 C 848.148438 1020.675781 878.792969 1033.40625 896.769531 1015.507812 L 1201.109375 712.28125 C 1212.289062 701.140625 1212.289062 683.039062 1201.109375 671.894531 " fill-opacity="1" fill-rule="nonzero"/></g></svg>